<?xml version="1.0" standalone="no"?>
<!DOCTYPE svg PUBLIC "-//W3C//DTD SVG 20010904//EN"
 "http://www.w3.org/TR/2001/REC-SVG-20010904/DTD/svg10.dtd">
<svg version="1.0" xmlns="http://www.w3.org/2000/svg"
 width="16.000000pt" height="16.000000pt" viewBox="0 0 16.000000 16.000000"
 preserveAspectRatio="xMidYMid meet">
<metadata>
Created by potrace 1.11, written by Peter Selinger 2001-2013
</metadata>
<g transform="translate(0.000000,16.000000) scale(0.003077,-0.003077)"
fill="#000000" stroke="none">
<path d="M2160 4454 c-388 -65 -639 -213 -717 -423 -16 -43 -25 -55 -44 -58
-143 -19 -376 -112 -502 -200 -164 -114 -259 -243 -308 -418 -26 -94 -31 -279
-9 -380 7 -33 13 -64 15 -70 17 -79 17 -79 -25 -167 -50 -108 -96 -245 -106
-318 -10 -76 -7 -207 6 -282 35 -196 116 -326 247 -397 28 -16 49 -34 51 -46
7 -43 55 -180 79 -224 76 -138 189 -237 323 -282 90 -30 231 -30 314 -1 l59
22 63 -30 c34 -17 75 -33 91 -36 l29 -6 -1 -148 c-1 -82 2 -177 7 -211 16
-122 81 -220 179 -274 62 -33 94 -40 187 -39 60 1 84 7 137 33 101 50 176 150
191 255 6 40 31 116 101 303 l34 91 68 15 c134 31 223 87 285 182 l37 55 97 1
c104 1 113 2 242 25 191 34 357 114 469 226 46 46 116 156 126 201 4 15 10 29
14 32 4 2 38 5 76 6 159 5 336 60 489 151 81 48 198 161 238 228 90 155 94
357 10 500 -26 43 -27 51 -28 200 0 85 -4 173 -8 195 -9 51 -44 184 -55 210
-38 89 -85 171 -133 235 -151 203 -319 296 -539 300 -23 0 -30 10 -64 85 -143
322 -365 468 -684 452 -153 -7 -270 -51 -396 -148 l-67 -51 -27 21 c-158 126
-279 178 -433 185 -51 2 -104 2 -118 0z m215 -380 c46 -22 98 -66 218 -184 87
-85 169 -161 182 -168 24 -12 26 -10 62 59 54 101 83 143 136 198 115 119 279
155 410 92 86 -42 130 -102 207 -281 91 -213 162 -301 227 -286 16 4 47 16 71
28 69 33 106 33 167 3 128 -62 234 -228 271 -424 11 -54 10 -170 -2 -236 -21
-121 -19 -136 32 -205 52 -71 64 -98 64 -146 0 -49 -21 -84 -81 -138 -139
-125 -391 -180 -536 -117 -100 44 -166 148 -158 253 6 89 24 135 163 400 53
104 60 124 58 168 -1 39 -8 56 -28 76 -49 50 -149 32 -214 -39 -29 -31 -121
-215 -149 -297 -1 -3 -5 -12 -8 -20 -4 -8 -15 -41 -24 -72 l-18 -57 -44 29
c-97 66 -310 107 -405 78 -53 -17 -93 -61 -101 -113 -7 -48 12 -97 43 -113 25
-13 88 -6 156 19 102 37 186 8 297 -101 77 -75 124 -147 164 -245 24 -58 29
-85 30 -160 0 -68 -4 -98 -18 -122 -38 -70 -106 -118 -218 -157 -96 -32 -120
-36 -266 -43 -97 -4 -136 -2 -193 12 -75 18 -87 27 -188 137 -54 59 -124 99
-230 131 -71 22 -99 25 -195 23 -95 -2 -126 -7 -207 -35 -52 -18 -122 -47
-155 -65 l-60 -32 4 -69 c3 -71 15 -115 32 -126 6 -3 36 7 66 24 179 97 373
99 525 5 78 -48 165 -168 156 -215 -5 -26 -72 -44 -162 -44 -148 1 -147 2
-340 -541 -17 -48 -34 -88 -37 -88 -7 0 -4 158 5 310 12 192 14 268 6 280 -6
9 -30 12 -77 10 -109 -5 -185 -1 -223 11 -19 6 -70 38 -112 70 -122 94 -144
98 -208 36 -100 -97 -190 -97 -283 -1 -61 64 -82 116 -82 209 0 68 5 89 31
145 56 117 141 199 249 239 77 29 113 34 365 56 120 10 209 36 277 82 55 36
106 93 122 135 21 57 -21 168 -79 206 -48 33 -93 25 -193 -34 -177 -103 -309
-164 -370 -168 -81 -7 -93 12 -116 184 -11 81 -11 82 -30 150 -28 99 -87 162
-139 146 -87 -28 -95 -164 -21 -359 56 -147 45 -192 -84 -342 -130 -150 -193
-201 -235 -187 -17 5 -42 57 -58 117 -15 57 -13 237 3 275 6 14 21 50 33 80
12 30 46 103 75 162 59 118 59 115 20 238 -57 184 -50 344 21 450 31 46 119
118 191 157 75 40 209 87 298 104 75 14 290 18 366 6 70 -10 186 -52 230 -83
107 -74 145 -144 173 -324 25 -156 57 -214 139 -254 71 -35 122 -30 159 15 24
29 27 39 24 93 -4 72 -27 126 -104 246 -70 109 -105 184 -97 209 3 11 23 30
43 43 52 31 69 49 81 82 29 74 -55 179 -127 161 -15 -3 -56 -20 -92 -37 -50
-25 -81 -32 -135 -34 -132 -5 -294 47 -339 108 -16 23 -17 31 -6 57 22 55 134
113 310 162 132 36 199 34 285 -7z"/>
</g>
</svg>
